# xmcd CD database file
#
# Track frame offsets:
#	150
#	16022
#	29360
#	43189
#	58307
#	73517
#	86610
#	100407
#	113240
#	126532
#	140542
#	154717
#	167417
#	181707
#	195822
#	210582
#	224982
#	237937
#	250825
#	263097
#	275012
#	288100
#	301117
#	313675
#
# Disc length: 4376 seconds
#
# Revision: 1
# Processed by: cddbd v1.4PL0 Copyright (c) Steve Scherf et al.
# Submitted via: CDex 1.50Beta7
#
DISCID=5a111618
DTITLE=Bunmble Bee Slim - B And O Blues
DYEAR=1900
DGENRE=Blues
TTITLE0=No Woman No Nickel
TTITLE1=Greasy Greens
TTITLE2=B And O Lines
TTITLE3=Sail On,Little Girl,Sail On
TTITLE4=Sad And Lonesome
TTITLE5=Climbing On Top Of The Hill
TTITLE6=Ain't It A Cryin' Shame?(Tricky Woman Blues)
TTITLE7=Muddy Water Blues
TTITLE8=You Can't Take It Baby
TTITLE9=Everybody's Fishing
TTITLE10=Bricks In My Pillow
TTITLE11=Policy Dream Blues (You Better Get On It)
TTITLE12=What's Wrong?
TTITLE13=Can't You Trust Me No More
TTITLE14=When The Sun Goes Down
TTITLE15=The Death Of Leroy Carr (Dedicated To The Memory OF Leroy Carr)
TTITLE16=Hey Lawdy Mama
TTITLE17=New Orleans Stop Time
TTITLE18=No More Biscuit Rolling Here
TTITLE19=Back In Jail Again
TTITLE20=She Never
TTITLE21=12 O'clock Southern Train
TTITLE22=You Sure Look Good To Me
TTITLE23=Woman For Every Man
EXTD=
EXTT0=
EXTT1=
EXTT2=
EXTT3=
EXTT4=
EXTT5=
EXTT6=
EXTT7=
EXTT8=
EXTT9=
EXTT10=
EXTT11=
EXTT12=
EXTT13=
EXTT14=
EXTT15=
EXTT16=
EXTT17=
EXTT18=
EXTT19=
EXTT20=
EXTT21=
EXTT22=
EXTT23=
PLAYORDER=
